<?xml version="1.0" encoding="iso-8859-1"?>
<!-- Generator: Adobe Illustrator 19.0.0, SVG Export Plug-In . SVG Version: 6.00 Build 0)  -->
<svg fill="#5b6179ba"  version="1.1" id="Capa_1" xmlns="http://www.w3.org/2000/svg" xmlns:xlink="http://www.w3.org/1999/xlink" x="0px" y="0px"
	 viewBox="0 0 511.95 511.95" style="enable-background:new 0 0 511.95 511.95;" xml:space="preserve">
<g>
	<g>
		<path d="M131.987,351.965c-2.211,0-4,1.789-4,4v119.989c0,2.211,1.789,4,4,4s4-1.79,4-4.001V355.965
			C135.987,353.754,134.198,351.965,131.987,351.965z"/>
	</g>
</g>
<g>
	<g>
		<path d="M107.99,335.967c-2.211,0-4,1.789-4,4v135.987c0,2.211,1.789,4,4,4c2.21,0,3.999-1.79,4-4.001V339.967
			C111.99,337.756,110.2,335.967,107.99,335.967z"/>
	</g>
</g>
<g>
	<g>
		<path d="M155.985,351.965c-2.211,0-4,1.789-4,4v119.989c0,2.211,1.79,4,4,4s3.999-1.79,4-4.001V355.965
			C159.985,353.754,158.196,351.965,155.985,351.965z"/>
	</g>
</g>
<g>
	<g>
		<path d="M179.982,335.967c-2.211,0-4,1.789-4,4v135.987c0,2.211,1.789,4,4,4s4-1.79,4-4.001V339.967
			C183.982,337.756,182.193,335.967,179.982,335.967z"/>
	</g>
</g>
<g>
	<g>
		<path d="M195.984,255.975h-15.999c-2.211,0-4,1.789-4,4v11.998h-15.999v-11.998c0-2.211-1.79-4-4-4h-23.998c-2.211,0-4,1.789-4,4
			v11.998H111.99v-11.998c0-2.211-1.79-4-4-4H91.991c-2.211,0-4,1.789-4,4v47.995c0,1.062,0.421,2.077,1.171,2.827l15.999,15.999
			c0.75,0.75,1.766,1.172,2.828,1.172h71.993c1.063,0,2.078-0.422,2.832-1.172l15.998-15.999c0.75-0.75,1.172-1.765,1.172-2.827
			v-47.995C199.984,257.764,198.194,255.975,195.984,255.975z M191.981,306.314l-13.655,13.655h-68.681l-13.657-13.655v-42.34h8
			v11.999c0,2.211,1.789,4,4,4h23.998c2.211,0,4-1.789,4-4v-11.999h15.999v11.999c0,2.211,1.79,4,4,4h23.997c2.211,0,4-1.789,4-4
			v-11.999h7.999V306.314z"/>
	</g>
</g>
<g>
	<g>
		<path d="M347.966,95.991H315.97c-2.211,0-4,1.789-4,4v11.999h-15.998V99.991c0-2.211-1.789-4-4-4h-71.993c-2.211,0-4,1.789-4,4
			v11.999H199.98V99.991c0-2.211-1.79-4-4-4h-31.997c-2.211,0-4,1.789-4,4v63.993c0,1.062,0.422,2.078,1.172,2.828l15.999,15.998
			c0.75,0.75,1.766,1.172,2.828,1.172h151.985c1.063,0,2.078-0.422,2.829-1.172l15.998-15.998c0.75-0.75,1.172-1.766,1.172-2.828
			V99.991C351.966,97.78,350.177,95.991,347.966,95.991z M343.965,162.328l-13.654,13.655H181.639l-13.657-13.655V103.99h23.998
			v11.999c0,2.211,1.79,4,4,4h23.998c2.211,0,4-1.789,4-4V103.99h63.993v11.999c0,2.211,1.789,4,4,4h23.998c2.211,0,4-1.789,4-4
			V103.99h23.996V162.328z"/>
	</g>
</g>
<g>
	<g>
		<path d="M355.965,351.965c-2.211,0-4,1.789-4,4v119.989c0,2.211,1.789,4,4,4s4-1.79,4-4.001V355.965
			C359.965,353.754,358.176,351.965,355.965,351.965z"/>
	</g>
</g>
<g>
	<g>
		<path d="M331.967,335.967c-2.211,0-4,1.789-4,4v135.987c0,2.211,1.789,4,4,4s4-1.79,4-4.001V339.967
			C335.967,337.756,334.178,335.967,331.967,335.967z"/>
	</g>
</g>
<g>
	<g>
		<path d="M379.963,351.965c-2.211,0-4,1.789-4,4v119.989c0,2.211,1.789,4,4,4s3.998-1.79,3.998-4.001V355.965
			C383.961,353.754,382.174,351.965,379.963,351.965z"/>
	</g>
</g>
<g>
	<g>
		<path d="M403.959,335.967c-2.209,0-3.998,1.789-3.998,4v135.987c0,2.211,1.789,4,3.998,4c2.211,0,4-1.79,4-4.001V339.967
			C407.959,337.756,406.17,335.967,403.959,335.967z"/>
	</g>
</g>
<g>
	<g>
		<path d="M299.971,295.971h-87.992c-2.211,0-4,1.789-4,4c0,2.21,1.789,3.999,4,3.999h87.992c2.211,0,4-1.789,4-3.999
			C303.971,297.76,302.182,295.971,299.971,295.971z"/>
	</g>
</g>
<g>
	<g>
		<path d="M255.975,351.966c-26.467,0-47.996,21.529-47.996,47.996v75.992c0,2.211,1.789,4,4,4s4-1.789,4-4v-75.992
			c0-22.053,17.944-39.996,39.996-39.996c22.053,0,39.996,17.943,39.996,39.996v75.992c0,2.211,1.789,4,4,4s4-1.79,4-4v-75.992
			C303.971,373.495,282.442,351.966,255.975,351.966z"/>
	</g>
</g>
<g>
	<g>
		<path d="M255.975,367.965c-2.211,0-4,1.788-4,3.999v103.99c0,2.211,1.79,4,4,4c2.211,0,4-1.79,4-4v-103.99
			C259.975,369.753,258.186,367.965,255.975,367.965z"/>
	</g>
</g>
<g>
	<g>
		<path d="M283.973,399.961h-55.996c-2.21,0-3.999,1.788-3.999,3.999s1.789,4,3.999,4h55.996c2.209,0,3.998-1.789,3.998-4
			S286.182,399.961,283.973,399.961z"/>
	</g>
</g>
<g>
	<g>
		<path d="M283.973,439.957h-55.996c-2.21,0-3.999,1.788-3.999,3.999s1.789,4,3.999,4h55.996c2.209,0,3.998-1.789,3.998-4
			S286.182,439.957,283.973,439.957z"/>
	</g>
</g>
<g>
	<g>
		<path d="M179.982,319.969c-2.211,0-4,1.788-4,3.999v4c0,2.21,1.789,3.999,4,3.999s4-1.789,4-3.999v-4
			C183.982,321.757,182.193,319.969,179.982,319.969z"/>
	</g>
</g>
<g>
	<g>
		<path d="M163.984,319.969c-2.211,0-4,1.788-4,3.999v4c0,2.21,1.789,3.999,4,3.999s3.999-1.789,3.999-3.999v-4
			C167.983,321.757,166.194,319.969,163.984,319.969z"/>
	</g>
</g>
<g>
	<g>
		<path d="M147.985,319.969c-2.21,0-3.999,1.788-3.999,3.999v4c0,2.21,1.789,3.999,3.999,3.999c2.211,0,4-1.789,4-3.999v-4
			C151.985,321.757,150.196,319.969,147.985,319.969z"/>
	</g>
</g>
<g>
	<g>
		<path d="M139.986,319.969c-2.211,0-4,1.788-4,3.999v4c0,2.21,1.79,3.999,4,3.999c2.211,0,4-1.789,4-3.999v-4
			C143.986,321.757,142.197,319.969,139.986,319.969z"/>
	</g>
</g>
<g>
	<g>
		<path d="M123.988,319.969c-2.211,0-4,1.788-4,3.999v4c0,2.21,1.789,3.999,4,3.999s3.999-1.789,3.999-3.999v-4
			C127.987,321.757,126.198,319.969,123.988,319.969z"/>
	</g>
</g>
<g>
	<g>
		<path d="M107.99,319.969c-2.211,0-4,1.788-4,3.999v4c0,2.21,1.789,3.999,4,3.999c2.21,0,3.999-1.789,4-3.999v-4
			C111.99,321.757,110.2,319.969,107.99,319.969z"/>
	</g>
</g>
<g>
	<g>
		<path d="M419.959,255.975h-16c-2.209,0-3.998,1.789-3.998,4v11.998h-16v-11.998c0-2.211-1.787-4-3.998-4h-23.998
			c-2.211,0-4,1.789-4,4v11.998h-15.998v-11.998c0-2.211-1.789-4-4-4h-15.998c-2.211,0-4,1.789-4,4v47.995
			c0,1.062,0.422,2.077,1.172,2.827l15.998,15.999c0.75,0.75,1.766,1.172,2.828,1.172h71.992c1.063,0,2.078-0.422,2.828-1.172
			l16-15.999c0.748-0.75,1.17-1.765,1.17-2.827v-47.995C423.957,257.764,422.17,255.975,419.959,255.975z M415.959,306.314
			l-13.654,13.655h-68.682l-13.654-13.655v-42.34h7.998v11.999c0,2.211,1.789,4,4,4h23.998c2.211,0,4-1.789,4-4v-11.999h15.998
			v11.999c0,2.211,1.789,4,4,4h23.996c2.211,0,4-1.789,4-4v-11.999h8V306.314z"/>
	</g>
</g>
<g>
	<g>
		<path d="M403.959,319.969c-2.209,0-3.998,1.788-3.998,3.999v4c0,2.21,1.789,3.999,3.998,3.999c2.211,0,4-1.789,4-3.999v-4
			C407.959,321.757,406.17,319.969,403.959,319.969z"/>
	</g>
</g>
<g>
	<g>
		<path d="M387.961,319.969c-2.211,0-4,1.788-4,3.999v4c0,2.21,1.789,3.999,4,3.999s4-1.789,4-3.999v-4
			C391.961,321.757,390.172,319.969,387.961,319.969z"/>
	</g>
</g>
<g>
	<g>
		<path d="M371.963,319.969c-2.211,0-4,1.788-4,3.999v4c0,2.21,1.789,3.999,4,3.999s4-1.789,4-3.999v-4
			C375.963,321.757,374.174,319.969,371.963,319.969z"/>
	</g>
</g>
<g>
	<g>
		<path d="M363.963,319.969c-2.209,0-3.998,1.788-3.998,3.999v4c0,2.21,1.789,3.999,3.998,3.999c2.211,0,4-1.789,4-3.999v-4
			C367.963,321.757,366.174,319.969,363.963,319.969z"/>
	</g>
</g>
<g>
	<g>
		<path d="M347.965,319.969c-2.211,0-4,1.788-4,3.999v4c0,2.21,1.789,3.999,4,3.999s4-1.789,4-3.999v-4
			C351.965,321.757,350.176,319.969,347.965,319.969z"/>
	</g>
</g>
<g>
	<g>
		<path d="M331.967,319.969c-2.211,0-4,1.788-4,3.999v4c0,2.21,1.789,3.999,4,3.999s4-1.789,4-3.999v-4
			C335.967,321.757,334.178,319.969,331.967,319.969z"/>
	</g>
</g>
<g>
	<g>
		<path d="M507.949,335.967h-4v-11.999c0-2.211-1.787-3.999-3.998-3.999h-23.998c-2.211,0-4,1.788-4,3.999v11.999h-15.998v-11.999
			c0-2.211-1.789-3.999-4-3.999h-23.998c-2.211,0-4,1.788-4,3.999v11.999h-3.998c-2.211,0-4,1.789-4,4c0,2.21,1.789,3.999,4,3.999
			h7.998c2.211,0,4-1.789,4-3.999v-11.999h15.998v11.999c0,2.21,1.789,3.999,4,3.999h23.999c2.211,0,4-1.789,4-3.999v-11.999h15.998
			v11.999c0,2.21,1.789,3.999,4,3.999h3.998v131.988c0,2.211,1.789,4,4,4s4-1.79,3.999-4.001V339.967
			C511.949,337.756,510.16,335.967,507.949,335.967z"/>
	</g>
</g>
<g>
	<g>
		<path d="M91.992,335.967h-4v-11.999c0-2.211-1.79-3.999-4-3.999H59.994c-2.21,0-3.999,1.788-3.999,3.999v11.999H39.997v-11.999
			c0-2.211-1.789-3.999-3.999-3.999H12c-2.211,0-4,1.788-4,3.999v11.999H4c-2.211,0-4,1.789-4,4v135.987c0,2.211,1.789,4,4,4
			s3.999-1.79,3.999-4.001V343.966h4c2.211,0,4-1.789,4-3.999v-11.999h15.998v11.999c0,2.21,1.789,3.999,4,3.999h23.997
			c2.211,0,4-1.789,4-3.999v-11.999h15.999v11.999c0,2.21,1.789,3.999,4,3.999h7.999c2.211,0,4-1.789,4-3.999
			C95.992,337.756,94.203,335.967,91.992,335.967z"/>
	</g>
</g>
<g>
	<g>
		<path d="M483.952,207.979c-2.209,0-3.998,1.79-3.998,4v95.991c0,2.21,1.789,3.999,3.998,3.999c2.211,0,4-1.789,4-3.999v-95.991
			C487.952,209.768,486.163,207.979,483.952,207.979z"/>
	</g>
</g>
<g>
	<g>
		<path d="M435.957,207.979c-2.211,0-4,1.79-4,4v95.991c0,2.21,1.789,3.999,4,3.999s4-1.789,4-3.999v-95.991
			C439.957,209.768,438.168,207.979,435.957,207.979z"/>
	</g>
</g>
<g>
	<g>
		<path d="M459.955,239.976c-6.617,0-12,5.382-12,11.999v15.999c0,2.21,1.789,3.999,4,3.999h15.999c2.21,0,4-1.789,3.999-3.999
			v-15.999C471.953,245.358,466.57,239.976,459.955,239.976z M463.953,263.974h-7.998v-11.999c0-2.204,1.797-4,4-4
			c2.203,0,3.998,1.797,3.998,4V263.974z"/>
	</g>
</g>
<g>
	<g>
		<path d="M461.94,136.51c-1.906-1.078-4.359-0.438-5.461,1.492l-31.998,55.994c-1.094,1.914-0.43,4.359,1.492,5.461
			c0.625,0.352,1.304,0.523,1.984,0.523c1.383,0,2.735-0.726,3.477-2.015l31.996-55.995
			C464.524,140.057,463.86,137.612,461.94,136.51z"/>
	</g>
</g>
<g>
	<g>
		<path d="M495.428,193.996l-31.998-55.994c-1.107-1.93-3.561-2.57-5.459-1.492c-1.922,1.101-2.586,3.546-1.492,5.46l31.996,55.995
			c0.743,1.289,2.094,2.015,3.477,2.015c0.679,0,1.359-0.171,1.984-0.523C495.858,198.355,496.522,195.91,495.428,193.996z"/>
	</g>
</g>
<g>
	<g>
		<path d="M491.952,191.98h-63.994c-2.211,0-4,1.789-4,4s1.789,4,4,4h63.994c2.211,0,4-1.789,4-4S494.163,191.98,491.952,191.98z"/>
	</g>
</g>
<g>
	<g>
		<path d="M459.955,119.989c-2.211,0-4,1.789-4,3.999v15.999c0,2.21,1.789,3.999,4,3.999s3.999-1.789,3.998-3.999v-15.999
			C463.953,121.778,462.166,119.989,459.955,119.989z"/>
	</g>
</g>
<g>
	<g>
		<path d="M75.993,207.979c-2.211,0-4,1.79-4,4v95.991c0,2.21,1.79,3.999,4,3.999c2.211,0,3.999-1.789,4-3.999v-95.991
			C79.993,209.768,78.204,207.979,75.993,207.979z"/>
	</g>
</g>
<g>
	<g>
		<path d="M27.997,207.979c-2.211,0-4,1.79-4,4v95.991c0,2.21,1.79,3.999,4,3.999c2.211,0,4-1.789,4-3.999v-95.991
			C31.997,209.768,30.208,207.979,27.997,207.979z"/>
	</g>
</g>
<g>
	<g>
		<path d="M51.995,239.976c-6.616,0-11.999,5.382-11.999,11.999v15.999c0,2.21,1.789,3.999,4,3.999h15.998c2.211,0,4-1.789,4-3.999
			v-15.999C63.994,245.359,58.611,239.976,51.995,239.976z M55.996,263.974h-8v-11.999c0-2.204,1.797-4,4-4s4,1.797,4,4V263.974z"/>
	</g>
</g>
<g>
	<g>
		<path d="M53.979,136.51c-1.906-1.078-4.359-0.438-5.46,1.492l-31.997,55.994c-1.093,1.914-0.429,4.359,1.492,5.461
			c0.625,0.352,1.304,0.523,1.984,0.523c1.383,0,2.734-0.726,3.477-2.015l31.996-55.995
			C56.564,140.057,55.901,137.612,53.979,136.51z"/>
	</g>
</g>
<g>
	<g>
		<path d="M87.468,193.996l-31.997-55.994c-1.109-1.93-3.57-2.57-5.461-1.492c-1.922,1.101-2.586,3.546-1.492,5.46l31.997,55.995
			c0.743,1.289,2.094,2.015,3.477,2.015c0.68,0,1.359-0.171,1.984-0.523C87.898,198.355,88.561,195.91,87.468,193.996z"/>
	</g>
</g>
<g>
	<g>
		<path d="M83.992,191.98H19.998c-2.21,0-3.999,1.789-3.999,4s1.789,4,3.999,4h63.994c2.211,0,4-1.789,4-4
			S86.202,191.98,83.992,191.98z"/>
	</g>
</g>
<g>
	<g>
		<path d="M51.995,119.989c-2.211,0-4,1.789-4,3.999v15.999c0,2.21,1.789,3.999,4,3.999s4-1.789,4-3.999v-15.999
			C55.995,121.778,54.206,119.989,51.995,119.989z"/>
	</g>
</g>
<g>
	<g>
		<path d="M179.982,191.981c-2.211,0-4,1.789-4,4v47.995c0,2.211,1.789,4,4,4s4-1.789,4-4v-47.995
			C183.982,193.77,182.193,191.981,179.982,191.981z"/>
	</g>
</g>
<g>
	<g>
		<path d="M331.967,191.981c-2.211,0-4,1.789-4,4v47.995c0,2.211,1.789,4,4,4s4-1.789,4-4v-47.995
			C335.967,193.77,334.178,191.981,331.967,191.981z"/>
	</g>
</g>
<g>
	<g>
		<path d="M235.977,191.981c-2.211,0-4,1.789-4,4v87.991c0,2.211,1.79,4,4,4s3.999-1.789,4-4v-87.991
			C239.977,193.77,238.188,191.981,235.977,191.981z"/>
	</g>
</g>
<g>
	<g>
		<path d="M275.973,191.981c-2.211,0-4,1.789-4,4v87.991c0,2.211,1.789,4,4,4c2.211,0,4-1.789,4-4v-87.991
			C279.973,193.77,278.184,191.981,275.973,191.981z"/>
	</g>
</g>
<g>
	<g>
		<path d="M255.975,0c-2.211,0-4,1.789-4,3.999v79.993c0,2.211,1.79,4,4,4c2.211,0,4-1.789,4-4.001V3.999
			C259.975,1.789,258.186,0,255.975,0z"/>
	</g>
</g>
<g>
	<g>
		<path d="M299.971,7.998h-31.998c-2.211,0-3.998,1.789-3.998,4s1.787,4,3.998,4h31.998c2.211,0,4-1.789,4-4
			S302.182,7.998,299.971,7.998z"/>
	</g>
</g>
<g>
	<g>
		<path d="M299.971,7.999c-2.211,0-4,1.79-4,4v15.998c0,2.211,1.789,4,4,4s4-1.789,4-3.999V11.999
			C303.971,9.788,302.182,7.999,299.971,7.999z"/>
	</g>
</g>
<g>
	<g>
		<path d="M299.971,23.997h-31.998c-2.211,0-3.998,1.789-3.998,4s1.787,4,3.998,4h31.998c2.211,0,4-1.789,4-4
			S302.182,23.997,299.971,23.997z"/>
	</g>
</g>
<g>
	<g>
		<path d="M371.963,23.997h-55.994c-2.211,0-4,1.789-4,4s1.789,4,4,4h55.994c2.211,0,4-1.789,4-4S374.174,23.997,371.963,23.997z"/>
	</g>
</g>
<g>
	<g>
		<path d="M369.619,35.996l5.172-5.171c1.562-1.562,1.562-4.094,0-5.656c-1.562-1.562-4.094-1.562-5.656,0l-7.998,8
			c-1.562,1.562-1.562,4.094,0,5.656l7.998,7.999c0.781,0.781,1.805,1.172,2.828,1.172c1.024,0,2.047-0.391,2.828-1.173
			c1.562-1.563,1.562-4.094,0-5.656L369.619,35.996z"/>
	</g>
</g>
<g>
	<g>
		<path d="M371.963,39.997h-79.992c-2.211,0-4,1.789-4,3.999c0,2.211,1.789,4,4,4h79.992c2.211,0,4-1.79,4-4
			S374.174,39.997,371.963,39.997z"/>
	</g>
</g>
<g>
	<g>
		<path d="M507.95,487.952H4c-2.211,0-4,1.789-4,4v15.998c0,2.211,1.789,4,4,4h503.95c2.211,0,4-1.789,4-4v-15.998
			C511.95,489.741,510.161,487.952,507.95,487.952z M503.949,503.951H7.999v-7.999h495.95V503.951z"/>
	</g>
</g>
<g>
</g>
<g>
</g>
<g>
</g>
<g>
</g>
<g>
</g>
<g>
</g>
<g>
</g>
<g>
</g>
<g>
</g>
<g>
</g>
<g>
</g>
<g>
</g>
<g>
</g>
<g>
</g>
<g>
</g>
</svg>
